<?xml version="1.0" encoding="UTF-8" standalone="no"?>
<!-- Generator: Adobe Illustrator 19.0.0, SVG Export Plug-In . SVG Version: 6.00 Build 0)  -->

<svg
   xmlns:dc="http://purl.org/dc/elements/1.1/"
   xmlns:cc="http://creativecommons.org/ns#"
   xmlns:rdf="http://www.w3.org/1999/02/22-rdf-syntax-ns#"
   xmlns:svg="http://www.w3.org/2000/svg"
   xmlns="http://www.w3.org/2000/svg"
   xmlns:sodipodi="http://sodipodi.sourceforge.net/DTD/sodipodi-0.dtd"
   xmlns:inkscape="http://www.inkscape.org/namespaces/inkscape"
   version="1.1"
   id="Layer_1"
   x="0px"
   y="0px"
   viewBox="0 0 512 512"
   style="enable-background:new 0 0 512 512;"
   xml:space="preserve"
   sodipodi:docname="pie.svg"
   inkscape:version="0.92.4 (5da689c313, 2019-01-14)"><metadata
   id="metadata55"><rdf:RDF><cc:Work
       rdf:about=""><dc:format>image/svg+xml</dc:format><dc:type
         rdf:resource="http://purl.org/dc/dcmitype/StillImage" /><dc:title></dc:title></cc:Work></rdf:RDF></metadata><defs
   id="defs53">
		
		
		
		
		
		
		
	</defs><sodipodi:namedview
   pagecolor="#ffffff"
   bordercolor="#666666"
   borderopacity="1"
   objecttolerance="10"
   gridtolerance="10"
   guidetolerance="10"
   inkscape:pageopacity="0"
   inkscape:pageshadow="2"
   inkscape:window-width="640"
   inkscape:window-height="480"
   id="namedview51"
   showgrid="false"
   inkscape:zoom="0.4609375"
   inkscape:cx="256"
   inkscape:cy="256"
   inkscape:window-x="2338"
   inkscape:window-y="323"
   inkscape:window-maximized="0"
   inkscape:current-layer="g18" />
<g
   id="g18">
	<path
   inkscape:connector-curvature="0"
   id="path2"
   d="m 235.166,299.868 c 0,18.376 8.957,32.233 20.834,32.233 11.877,0 20.833,-13.857 20.833,-32.233 0,-18.375 -8.956,-32.232 -20.833,-32.232 -11.877,0 -20.834,13.857 -20.834,32.232 z m 26.667,0 c 0,11.014 -4.44,16.899 -5.833,17.23 -1.394,-0.331 -5.834,-6.216 -5.834,-17.23 0,-11.079 4.494,-16.969 5.809,-17.234 1.364,0.265 5.858,6.155 5.858,17.234 z"
   style="fill:#ffffff" /><path
   inkscape:connector-curvature="0"
   id="path4"
   d="m 173.324,281.734 c -14.058,14.203 -18.101,30.736 -9.612,39.314 2.887,2.916 6.855,4.458 11.476,4.458 8.534,0 18.871,-5.297 27.653,-14.169 14.058,-14.204 18.1,-30.738 9.611,-39.315 -2.887,-2.916 -6.855,-4.458 -11.476,-4.458 -8.534,10e-4 -18.871,5.298 -27.652,14.17 z m 18.856,19.052 c -6.61,6.679 -13.442,9.721 -16.992,9.721 -0.386,0 -0.64,-0.038 -0.789,-0.072 -0.595,-1.971 1.294,-9.772 9.585,-18.148 6.611,-6.679 13.442,-9.722 16.991,-9.722 0.386,0 0.64,0.038 0.79,0.072 0.595,1.97 -1.294,9.772 -9.585,18.149 z"
   style="fill:#ffffff" /><path
   inkscape:connector-curvature="0"
   id="path6"
   d="m 311.856,267.565 c -4.621,0 -8.589,1.542 -11.476,4.458 -8.489,8.576 -4.447,25.11 9.611,39.315 8.781,8.872 19.118,14.168 27.652,14.169 0,0 0.001,0 0.001,0 4.621,0 8.589,-1.542 11.476,-4.458 8.489,-8.578 4.447,-25.111 -9.612,-39.314 -8.781,-8.873 -19.118,-14.17 -27.652,-14.17 z m 26.577,42.87 c -0.149,0.034 -0.402,0.072 -0.788,0.072 v 0 c -3.55,0 -10.382,-3.042 -16.992,-9.721 -8.291,-8.377 -10.18,-16.179 -9.585,-18.149 0.149,-0.034 0.403,-0.072 0.789,-0.072 3.55,0 10.381,3.042 16.992,9.722 8.29,8.376 10.179,16.177 9.584,18.148 z"
   style="fill:#ffffff" /><path
   inkscape:connector-curvature="0"
   id="path8"
   d="m 481.909,349.88 h -5.901 c -9.324,-14.19 -20.279,-27.469 -32.776,-39.635 -2.968,-2.888 -7.715,-2.826 -10.606,0.142 -2.889,2.968 -2.826,7.716 0.142,10.606 9.256,9.011 17.585,18.679 24.987,28.887 H 328 c -4.142,0 -7.5,3.358 -7.5,7.5 0,4.142 3.358,7.5 7.5,7.5 h 153.909 c 8.321,0 15.091,7.106 15.091,15.841 v 6.386 c 0,17.174 -13.305,31.146 -29.659,31.146 -9.465,0 -18.445,-4.819 -24.021,-12.892 -0.04,-0.059 -0.089,-0.11 -0.132,-0.168 -2.505,-3.688 -4.286,-7.987 -5.067,-12.71 -0.677,-4.087 -4.545,-6.847 -8.625,-6.174 -4.086,0.677 -6.851,4.538 -6.174,8.625 0.836,5.049 2.447,9.778 4.682,14.079 -5.533,5.847 -13.115,9.241 -21.047,9.241 -9.465,0 -18.444,-4.819 -24.02,-12.892 -0.092,-0.134 -0.198,-0.254 -0.298,-0.38 -2.109,-3.177 -3.688,-6.807 -4.568,-10.781 -0.896,-4.045 -4.906,-6.597 -8.944,-5.7 -4.044,0.896 -6.596,4.9 -5.7,8.944 0.913,4.124 2.336,8.002 4.187,11.576 -5.532,5.842 -13.111,9.232 -21.039,9.232 -9.465,0 -18.445,-4.819 -24.02,-12.891 -0.094,-0.136 -0.202,-0.258 -0.303,-0.386 -2.108,-3.175 -3.685,-6.804 -4.566,-10.776 -0.896,-4.044 -4.897,-6.596 -8.945,-5.699 -4.044,0.897 -6.596,4.901 -5.699,8.945 0.914,4.123 2.337,8.001 4.189,11.575 -5.533,5.842 -13.112,9.232 -21.039,9.232 -9.465,0 -18.445,-4.819 -24.02,-12.892 -0.091,-0.132 -0.197,-0.251 -0.295,-0.376 -2.111,-3.178 -3.69,-6.809 -4.571,-10.785 -0.897,-4.043 -4.898,-6.594 -8.945,-5.699 -4.044,0.896 -6.596,4.901 -5.699,8.945 0.914,4.123 2.337,8.001 4.188,11.574 -5.532,5.842 -13.111,9.232 -21.039,9.232 -9.465,0 -18.445,-4.819 -24.021,-12.892 -0.093,-0.135 -0.201,-0.256 -0.302,-0.384 -2.108,-3.176 -3.685,-6.805 -4.565,-10.778 -0.896,-4.044 -4.901,-6.599 -8.945,-5.7 -4.044,0.896 -6.596,4.901 -5.7,8.945 0.914,4.124 2.337,8.002 4.188,11.576 -5.532,5.841 -13.111,9.232 -21.039,9.232 -7.471,0 -14.632,-3.013 -20.063,-8.247 -0.246,-0.237 -0.491,-0.477 -0.729,-0.722 -0.237,-0.245 -0.47,-0.494 -0.699,-0.747 -0.218,-0.241 -0.431,-0.487 -0.643,-0.735 -0.233,-0.274 -0.466,-0.548 -0.691,-0.832 -0.173,-0.219 -0.337,-0.446 -0.505,-0.67 -0.232,-0.31 -0.468,-0.617 -0.69,-0.938 -0.008,-0.011 -0.018,-0.021 -0.025,-0.032 -2.093,-3.031 -3.691,-6.489 -4.638,-10.271 -1.006,-4.018 -5.083,-6.457 -9.098,-5.453 -4.018,1.007 -6.46,5.08 -5.453,9.098 0.913,3.644 2.26,7.073 3.93,10.276 -5.536,5.867 -13.131,9.274 -21.078,9.274 -7.233,0 -14.178,-2.822 -19.542,-7.753 h 0.011 c -1.017,-0.933 -1.972,-1.94 -2.862,-3.011 -0.032,-0.039 -0.065,-0.078 -0.097,-0.117 -0.39,-0.474 -0.763,-0.962 -1.126,-1.461 -0.064,-0.088 -0.13,-0.174 -0.194,-0.264 -2.052,-2.883 -3.647,-6.16 -4.648,-9.734 -1.117,-3.989 -5.256,-6.316 -9.245,-5.199 -3.989,1.117 -6.316,5.256 -5.199,9.245 0.89,3.175 2.117,6.183 3.603,9.014 -5.536,5.87 -13.134,9.279 -21.083,9.279 C 28.305,418.253 15,404.281 15,387.107 v -6.386 c 0,-8.735 6.769,-15.841 15.091,-15.841 H 292 c 4.142,0 7.5,-3.358 7.5,-7.5 0,-4.142 -3.358,-7.5 -7.5,-7.5 H 54.241 c 16.164,-22.291 36.733,-41.762 60.806,-57.46 2.989,1.737 6.745,2.654 11.078,2.654 7.272,0 15.679,-2.533 23.675,-7.133 10.979,-6.317 18.301,-14.617 20.669,-22.532 27.131,-9.305 56.045,-14.137 85.532,-14.137 31.352,0 62.252,5.575 90.942,16.131 2.923,7.296 9.911,14.749 19.971,20.538 7.995,4.599 16.402,7.132 23.673,7.133 0.001,0 0.001,0 0.002,0 3.098,0 5.895,-0.476 8.335,-1.379 3.599,2.392 7.133,4.872 10.588,7.453 3.319,2.478 8.019,1.798 10.498,-1.521 2.478,-3.318 1.798,-8.018 -1.52,-10.497 -3.158,-2.359 -6.382,-4.635 -9.653,-6.845 1.825,-9.961 -6.346,-22.186 -21.247,-30.76 -7.995,-4.6 -16.402,-7.133 -23.674,-7.133 -7.327,0 -13.003,2.624 -16.109,7.406 -29.117,-10.161 -60.251,-15.526 -91.806,-15.526 -30.315,0 -60.069,4.847 -88.09,14.177 -3.25,-3.921 -8.509,-6.056 -15.113,-6.056 -7.271,0 -15.679,2.534 -23.673,7.133 -13.466,7.747 -21.44,18.478 -21.506,27.823 -29.072,18.811 -53.423,42.81 -71.628,70.53 H 30.093 C 13.498,349.88 0,363.715 0,380.721 v 6.386 c 0,25.309 19.823,45.916 44.268,46.135 l 36.003,53.15 c 2.994,4.421 9.041,7.63 14.378,7.63 H 344 c 4.142,0 7.5,-3.358 7.5,-7.5 0,-4.142 -3.358,-7.5 -7.5,-7.5 l -249.298,0.001 c -0.549,-0.049 -1.693,-0.657 -2.012,-1.043 l -9.709,-14.333 h 74.018 c 4.142,0 7.5,-3.358 7.5,-7.5 0,-4.142 -3.358,-7.5 -7.5,-7.5 H 72.82 L 60.375,430.275 c 5.326,-2.076 10.251,-5.184 14.476,-9.184 8.165,7.732 18.934,12.162 30.191,12.162 11.257,0 22.025,-4.429 30.191,-12.162 8.166,7.732 18.934,12.162 30.191,12.162 11.258,0 22.026,-4.429 30.192,-12.162 8.165,7.732 18.934,12.162 30.191,12.162 11.257,0 22.026,-4.429 30.191,-12.162 8.165,7.732 18.934,12.162 30.191,12.162 11.256,0 22.025,-4.43 30.192,-12.162 8.165,7.732 18.933,12.162 30.191,12.162 11.257,0 22.026,-4.429 30.191,-12.162 8.166,7.732 18.935,12.162 30.191,12.162 11.257,0 22.026,-4.429 30.192,-12.162 4.225,4.001 9.15,7.108 14.476,9.185 l -12.445,18.372 H 198 c -4.142,0 -7.5,3.358 -7.5,7.5 0,4.142 3.358,7.5 7.5,7.5 h 231.02 l -9.681,14.292 c -0.348,0.428 -1.492,1.036 -1.989,1.083 H 383 c -4.142,0 -7.5,3.358 -7.5,7.5 0,4.142 3.358,7.5 7.5,7.5 h 34.351 c 5.337,0 11.384,-3.209 14.378,-7.629 l 36.004,-53.15 C 492.177,433.023 512,412.417 512,387.107 v -6.386 C 512,363.715 498.501,349.88 481.909,349.88 Z M 363.915,259.393 c 4.552,0 10.605,1.92 16.194,5.135 10.241,5.892 14.072,12.922 13.971,14.943 -0.394,0.22 -1.49,0.603 -3.492,0.603 h -0.001 c -4.552,0 -10.606,-1.92 -16.193,-5.134 -10.24,-5.892 -14.072,-12.924 -13.972,-14.943 0.393,-0.221 1.49,-0.604 3.493,-0.604 z m -227.312,5.135 c 5.588,-3.215 11.642,-5.135 16.193,-5.135 2.003,0 3.1,0.383 3.493,0.604 0.1,2.02 -3.732,9.051 -13.971,14.943 -5.588,3.215 -11.642,5.135 -16.194,5.135 -2.003,0 -3.1,-0.383 -3.493,-0.603 -0.101,-2.021 3.73,-9.052 13.972,-14.944 z"
   style="fill:#ffffff" /><path
   inkscape:connector-curvature="0"
   id="path10"
   d="m 297.374,83.282 h 25.882 c 16.55,0 30.014,13.569 30.014,30.249 0,16.681 -13.464,30.251 -30.014,30.251 H 307 c -4.142,0 -7.5,3.358 -7.5,7.5 0,4.142 3.358,7.5 7.5,7.5 h 16.256 c 24.821,0 45.014,-20.299 45.014,-45.251 0,-24.95 -20.193,-45.249 -45.014,-45.249 h -25.882 c -4.142,0 -7.5,3.358 -7.5,7.5 0,4.142 3.358,7.5 7.5,7.5 z"
   style="fill:#ffffff" /><path
   inkscape:connector-curvature="0"
   id="path12"
   d="m 209.881,182.911 v 20.538 c 0,4.142 3.358,7.5 7.5,7.5 4.142,0 7.5,-3.358 7.5,-7.5 v -20.538 c 0,-13.305 10.736,-24.13 23.933,-24.13 H 271 c 4.142,0 7.5,-3.358 7.5,-7.5 0,-4.142 -3.358,-7.5 -7.5,-7.5 h -22.186 c -21.467,0 -38.933,17.554 -38.933,39.13 z"
   style="fill:#ffffff" /><path
   inkscape:connector-curvature="0"
   id="path14"
   d="M 190.496,112.003 H 249 c 4.142,0 7.5,-3.358 7.5,-7.5 0,-4.142 -3.358,-7.5 -7.5,-7.5 h -58.504 c -17.516,0 -31.766,-14.361 -31.766,-32.013 0,-17.652 14.25,-32.013 31.766,-32.013 H 211.5 c 4.142,0 7.5,-3.358 7.5,-7.5 0,-4.142 -3.358,-7.5 -7.5,-7.5 h -21.004 c -25.787,0 -46.766,21.09 -46.766,47.013 0,25.924 20.979,47.013 46.766,47.013 z"
   style="fill:#ffffff" />
</g>
<g
   id="g20">
</g>
<g
   id="g22">
</g>
<g
   id="g24">
</g>
<g
   id="g26">
</g>
<g
   id="g28">
</g>
<g
   id="g30">
</g>
<g
   id="g32">
</g>
<g
   id="g34">
</g>
<g
   id="g36">
</g>
<g
   id="g38">
</g>
<g
   id="g40">
</g>
<g
   id="g42">
</g>
<g
   id="g44">
</g>
<g
   id="g46">
</g>
<g
   id="g48">
</g>
</svg>